<svg width="129" height="38" viewBox="0 0 129 38" fill="none" xmlns="http://www.w3.org/2000/svg">
<path d="M1.81056 3.68541L1.81106 3.68452C2.40196 2.64545 3.38154 1.77572 4.5743 1.2331C6.23782 0.484132 8.14394 0.491263 10.1125 0.498628C10.3074 0.499357 10.5029 0.500088 10.6989 0.500088H118.307C118.457 0.500088 118.606 0.499805 118.755 0.499524C120.042 0.497084 121.291 0.494715 122.518 0.676388C125.238 1.08771 127.366 3.00206 127.797 5.33634L127.798 5.33867C128.005 6.42961 128.003 7.53921 128 8.70069C128 8.81972 128 8.93929 128 9.05944V28.9417C128 29.0626 128 29.1828 128 29.3025C128.003 30.4642 128.005 31.5741 127.798 32.6653L127.797 32.6679C127.366 35.0108 125.246 36.9064 122.518 37.3256C121.291 37.5057 120.046 37.5033 118.76 37.5008C118.61 37.5005 118.459 37.5002 118.307 37.5002H10.6989C10.5006 37.5002 10.3028 37.501 10.1057 37.5017C8.13782 37.5093 6.23762 37.5166 4.57392 36.7652L4.57339 36.765C3.38094 36.2282 2.40279 35.358 1.81077 34.3199L1.81049 34.3194C1.06775 33.0203 1.02812 31.561 1 29.9764V8.02673C1.02847 6.44245 1.06822 4.98458 1.81056 3.68541Z" fill="black" stroke="#A6A6A6"/>
<path d="M31.0301 19.2857C31.0403 18.4928 31.2509 17.7153 31.6424 17.0257C32.0338 16.336 32.5933 15.7566 33.2688 15.3412C32.8397 14.7283 32.2735 14.224 31.6154 13.8681C30.9572 13.5123 30.2251 13.3148 29.4772 13.2915C27.882 13.124 26.3354 14.246 25.5225 14.246C24.6938 14.246 23.4422 13.3081 22.0944 13.3358C21.2226 13.364 20.373 13.6175 19.6283 14.0716C18.8836 14.5258 18.2693 15.1651 17.8451 15.9273C16.0078 19.1083 17.3783 23.7833 19.1383 26.3546C20.0188 27.6136 21.0479 29.0201 22.3945 28.9702C23.7122 28.9155 24.2044 28.1299 25.7949 28.1299C27.3708 28.1299 27.8325 28.9702 29.2064 28.9385C30.6204 28.9155 31.5112 27.6738 32.3609 26.4028C32.9936 25.5057 33.4804 24.5141 33.8034 23.4649C32.9819 23.1175 32.2809 22.5359 31.7877 21.7927C31.2946 21.0495 31.0311 20.1776 31.0301 19.2857Z" fill="white"/>
<path d="M28.4349 11.6003C29.2059 10.6748 29.5857 9.4852 29.4937 8.28418C28.3159 8.40789 27.2279 8.97082 26.4465 9.86081C26.0645 10.2956 25.7719 10.8014 25.5855 11.3493C25.399 11.8973 25.3224 12.4766 25.36 13.0541C25.9491 13.0602 26.532 12.9325 27.0646 12.6807C27.5972 12.4288 28.0658 12.0594 28.4349 11.6003Z" fill="white"/>
<path d="M47.6866 25.7823H43.1898L42.11 28.9709H40.2053L44.4646 17.1738H46.4434L50.7026 28.9709H48.7655L47.6866 25.7823ZM43.6556 24.3109H47.22L45.4628 19.136H45.4137L43.6556 24.3109Z" fill="white"/>
<path d="M59.9014 24.6711C59.9014 27.3439 58.4708 29.0612 56.312 29.0612C55.7651 29.0898 55.2212 28.9638 54.7426 28.6977C54.264 28.4315 53.87 28.036 53.6058 27.5564H53.5649V31.8165H51.7994V20.3701H53.5084V21.8007H53.5408C53.8172 21.3234 54.2179 20.9299 54.7001 20.6621C55.1824 20.3944 55.7282 20.2624 56.2795 20.2802C58.4624 20.2802 59.9014 22.0057 59.9014 24.6711ZM58.0867 24.6711C58.0867 22.9298 57.1868 21.7849 55.8138 21.7849C54.4648 21.7849 53.5575 22.9539 53.5575 24.6711C53.5575 26.4041 54.4648 27.5647 55.8138 27.5647C57.1868 27.5647 58.0867 26.4283 58.0867 24.6711Z" fill="white"/>
<path d="M69.3678 24.6711C69.3678 27.3439 67.9372 29.0612 65.7784 29.0612C65.2315 29.0898 64.6877 28.9638 64.209 28.6977C63.7304 28.4315 63.3365 28.036 63.0722 27.5564H63.0313V31.8165H61.2659V20.3701H62.9747V21.8007H63.0072C63.2836 21.3234 63.6843 20.9299 64.1665 20.6621C64.6488 20.3944 65.1946 20.2624 65.7459 20.2802C67.9289 20.2802 69.3678 22.0057 69.3678 24.6711ZM67.5532 24.6711C67.5532 22.9298 66.6532 21.7849 65.2802 21.7849C63.9313 21.7849 63.0239 22.9539 63.0239 24.6711C63.0239 26.4041 63.9313 27.5647 65.2802 27.5647C66.6533 27.5647 67.5532 26.4282 67.5532 24.6711Z" fill="white"/>
<path d="M75.6237 25.6846C75.7545 26.8545 76.891 27.6226 78.444 27.6226C79.9321 27.6226 81.0027 26.8545 81.0027 25.7996C81.0027 24.8839 80.357 24.3357 78.8281 23.9599L77.2992 23.5916C75.1329 23.0684 74.1272 22.0553 74.1272 20.4113C74.1272 18.3759 75.9011 16.9778 78.4199 16.9778C80.9127 16.9778 82.6216 18.3759 82.6791 20.4113H80.8969C80.7902 19.234 79.817 18.5234 78.3948 18.5234C76.9726 18.5234 75.9994 19.2424 75.9994 20.2889C75.9994 21.1229 76.621 21.6137 78.1415 21.9894L79.4413 22.3085C81.8617 22.8809 82.8674 23.8532 82.8674 25.5788C82.8674 27.7859 81.1093 29.1682 78.3131 29.1682C75.6969 29.1682 73.9305 27.8183 73.8164 25.6845L75.6237 25.6846Z" fill="white"/>
<path d="M86.6777 18.3352V20.3707H88.3133V21.7688H86.6777V26.5104C86.6777 27.247 87.0052 27.5903 87.7242 27.5903C87.9184 27.5869 88.1122 27.5733 88.305 27.5494V28.9392C87.9817 28.9996 87.6532 29.0269 87.3244 29.0208C85.583 29.0208 84.9039 28.3668 84.9039 26.6987V21.7688H83.6533V20.3707H84.9039V18.3352H86.6777Z" fill="white"/>
<path d="M89.2615 24.6714C89.2615 21.9652 90.8553 20.2646 93.3407 20.2646C95.8345 20.2646 97.4209 21.9651 97.4209 24.6714C97.4209 27.385 95.8428 29.0781 93.3407 29.0781C90.8395 29.0781 89.2615 27.385 89.2615 24.6714ZM95.622 24.6714C95.622 22.815 94.7713 21.7193 93.3407 21.7193C91.9101 21.7193 91.0603 22.8233 91.0603 24.6714C91.0603 26.5352 91.9101 27.6225 93.3407 27.6225C94.7713 27.6225 95.622 26.5352 95.622 24.6714Z" fill="white"/>
<path d="M98.876 20.3701H100.56V21.834H100.601C100.715 21.3768 100.982 20.9727 101.359 20.6897C101.736 20.4067 102.199 20.2621 102.67 20.2801C102.873 20.2793 103.076 20.3014 103.274 20.3459V21.9973C103.018 21.9188 102.75 21.8828 102.481 21.8906C102.225 21.8802 101.969 21.9254 101.732 22.0232C101.494 22.1209 101.281 22.2689 101.106 22.4569C100.931 22.6449 100.799 22.8684 100.719 23.1123C100.639 23.3561 100.612 23.6144 100.641 23.8695V28.9711H98.876L98.876 20.3701Z" fill="white"/>
<path d="M111.414 26.4452C111.177 28.0066 109.656 29.0781 107.711 29.0781C105.208 29.0781 103.655 27.4017 103.655 24.7122C103.655 22.0144 105.217 20.2646 107.636 20.2646C110.016 20.2646 111.512 21.8993 111.512 24.5072V25.1121H105.438V25.2187C105.41 25.5353 105.449 25.8542 105.554 26.1542C105.659 26.4543 105.826 26.7286 106.045 26.959C106.263 27.1895 106.529 27.3707 106.823 27.4907C107.117 27.6107 107.434 27.6667 107.751 27.655C108.169 27.6941 108.587 27.5974 108.945 27.3795C109.303 27.1615 109.581 26.8338 109.738 26.4452L111.414 26.4452ZM105.446 23.8782H109.746C109.762 23.5936 109.719 23.3087 109.619 23.0416C109.52 22.7744 109.366 22.5307 109.168 22.3257C108.97 22.1208 108.732 21.959 108.468 21.8504C108.204 21.7419 107.921 21.6891 107.636 21.6952C107.349 21.6935 107.064 21.7487 106.798 21.8577C106.532 21.9667 106.29 22.1274 106.086 22.3303C105.883 22.5333 105.721 22.7745 105.611 23.0402C105.501 23.3059 105.445 23.5907 105.446 23.8782Z" fill="white"/>
<path d="M43.4339 8.2933C43.804 8.26674 44.1754 8.32265 44.5213 8.45701C44.8672 8.59138 45.179 8.80083 45.4342 9.07028C45.6893 9.33972 45.8815 9.66243 45.9968 10.0151C46.1121 10.3678 46.1478 10.7418 46.1011 11.1099C46.1011 12.9208 45.1223 13.9618 43.4339 13.9618H41.3864V8.2933H43.4339ZM42.2668 13.1601H43.3355C43.6 13.176 43.8647 13.1326 44.1103 13.0332C44.3559 12.9338 44.5763 12.7809 44.7553 12.5856C44.9344 12.3903 45.0677 12.1576 45.1454 11.9043C45.2232 11.651 45.2435 11.3836 45.2049 11.1214C45.2407 10.8604 45.2183 10.5946 45.1394 10.3431C45.0604 10.0917 44.9268 9.86086 44.7482 9.66712C44.5695 9.47339 44.3502 9.32157 44.106 9.22255C43.8618 9.12352 43.5986 9.07974 43.3355 9.09435H42.2668V13.1601Z" fill="white"/>
<path d="M47.095 11.8206C47.0681 11.5395 47.1003 11.2559 47.1894 10.9879C47.2786 10.7199 47.4227 10.4736 47.6127 10.2646C47.8026 10.0556 48.0341 9.88862 48.2924 9.77436C48.5507 9.6601 48.8299 9.60107 49.1124 9.60107C49.3948 9.60107 49.674 9.6601 49.9323 9.77436C50.1906 9.88862 50.4221 10.0556 50.612 10.2646C50.802 10.4736 50.9461 10.7199 51.0353 10.9879C51.1244 11.2559 51.1566 11.5395 51.1297 11.8206C51.1571 12.102 51.1253 12.3861 51.0364 12.6545C50.9475 12.9229 50.8034 13.1697 50.6134 13.3791C50.4234 13.5885 50.1917 13.7558 49.9332 13.8703C49.6747 13.9848 49.3951 14.044 49.1124 14.044C48.8296 14.044 48.55 13.9848 48.2915 13.8703C48.033 13.7558 47.8013 13.5885 47.6113 13.3791C47.4213 13.1697 47.2772 12.9229 47.1883 12.6545C47.0994 12.3861 47.0676 12.102 47.095 11.8206ZM50.2613 11.8206C50.2613 10.8934 49.8448 10.3511 49.1137 10.3511C48.3799 10.3511 47.9671 10.8934 47.9671 11.8206C47.9671 12.7553 48.3799 13.2934 49.1137 13.2934C49.8448 13.2934 50.2613 12.7516 50.2613 11.8206Z" fill="white"/>
<path d="M56.4935 13.9619H55.6177L54.7335 10.8113H54.6668L53.7863 13.9619H52.9189L51.7397 9.68408H52.596L53.3624 12.9483H53.4254L54.3049 9.68408H55.1149L55.9943 12.9483H56.0611L56.8237 9.68408H57.668L56.4935 13.9619Z" fill="white"/>
<path d="M58.6599 9.68371H59.4726V10.3633H59.5357C59.6427 10.1192 59.8232 9.91459 60.0521 9.77798C60.2809 9.64136 60.5466 9.57954 60.8123 9.60113C61.0204 9.58549 61.2294 9.61687 61.4238 9.69296C61.6181 9.76905 61.7929 9.8879 61.9351 10.0407C62.0773 10.1935 62.1833 10.3763 62.2452 10.5757C62.3072 10.775 62.3235 10.9857 62.2929 11.1922V13.9614H61.4487V11.4042C61.4487 10.7167 61.15 10.3749 60.5256 10.3749C60.3843 10.3683 60.2432 10.3923 60.112 10.4454C59.9809 10.4984 59.8628 10.5792 59.7657 10.6822C59.6687 10.7851 59.5951 10.9078 59.55 11.0419C59.5048 11.176 59.4892 11.3182 59.5041 11.4589V13.9615H58.6599L58.6599 9.68371Z" fill="white"/>
<path d="M63.6376 8.01416H64.4818V13.9619H63.6376V8.01416Z" fill="white"/>
<path d="M65.6561 11.8207C65.6293 11.5396 65.6614 11.2559 65.7506 10.9879C65.8398 10.72 65.984 10.4736 66.1739 10.2646C66.3639 10.0556 66.5954 9.88863 66.8537 9.77436C67.112 9.6601 67.3913 9.60107 67.6737 9.60107C67.9561 9.60107 68.2354 9.6601 68.4937 9.77436C68.752 9.88863 68.9835 10.0556 69.1735 10.2646C69.3635 10.4736 69.5077 10.72 69.5968 10.9879C69.686 11.2559 69.7182 11.5396 69.6913 11.8207C69.7187 12.1021 69.6869 12.3862 69.5979 12.6546C69.509 12.923 69.3649 13.1698 69.1749 13.3792C68.9849 13.5886 68.7531 13.7559 68.4946 13.8704C68.2361 13.9849 67.9565 14.044 67.6737 14.044C67.391 14.044 67.1113 13.9849 66.8528 13.8704C66.5943 13.7559 66.3626 13.5886 66.1726 13.3792C65.9826 13.1698 65.8384 12.923 65.7495 12.6546C65.6606 12.3862 65.6288 12.1021 65.6561 11.8207ZM68.8225 11.8207C68.8225 10.8934 68.4059 10.3512 67.6749 10.3512C66.941 10.3512 66.5282 10.8934 66.5282 11.8207C66.5282 12.7554 66.9411 13.2935 67.6749 13.2935C68.4059 13.2935 68.8225 12.7517 68.8225 11.8207Z" fill="white"/>
<path d="M70.5804 12.7517C70.5804 11.9816 71.1538 11.5377 72.1715 11.4746L73.3302 11.4078V11.0386C73.3302 10.5868 73.0315 10.3317 72.4545 10.3317C71.9832 10.3317 71.6566 10.5047 71.5629 10.8071H70.7456C70.8319 10.0724 71.523 9.60107 72.4934 9.60107C73.5659 9.60107 74.1708 10.135 74.1708 11.0386V13.9614H73.3581V13.3603H73.2913C73.1557 13.5759 72.9653 13.7517 72.7396 13.8697C72.5138 13.9877 72.2608 14.0437 72.0064 14.0319C71.8268 14.0506 71.6453 14.0314 71.4736 13.9757C71.3018 13.9199 71.1437 13.8288 71.0094 13.7081C70.875 13.5875 70.7674 13.4401 70.6936 13.2753C70.6197 13.1106 70.5812 12.9322 70.5804 12.7517ZM73.3302 12.3861V12.0285L72.2856 12.0953C71.6965 12.1347 71.4293 12.3351 71.4293 12.7122C71.4293 13.0972 71.7633 13.3213 72.2226 13.3213C72.3571 13.3349 72.4931 13.3213 72.6223 13.2813C72.7515 13.2413 72.8713 13.1758 72.9747 13.0885C73.078 13.0013 73.1627 12.8941 73.2238 12.7735C73.2849 12.6528 73.3211 12.5211 73.3302 12.3861Z" fill="white"/>
<path d="M75.2799 11.8211C75.2799 10.4694 75.9748 9.61312 77.0556 9.61312C77.3229 9.60081 77.5883 9.66484 77.8206 9.79774C78.0529 9.93064 78.2425 10.1269 78.3674 10.3636H78.4305V8.01416H79.2747V13.9619H78.4658V13.286H78.399C78.2644 13.5211 78.0681 13.715 77.8314 13.8465C77.5946 13.9781 77.3263 14.0423 77.0556 14.0324C75.9674 14.0324 75.2799 13.1761 75.2799 11.8211ZM76.152 11.8211C76.152 12.7285 76.5797 13.2744 77.295 13.2744C78.0065 13.2744 78.4463 12.7206 78.4463 11.8248C78.4463 10.9333 78.0019 10.3715 77.295 10.3715C76.5843 10.3715 76.152 10.9212 76.152 11.8211Z" fill="white"/>
<path d="M82.7675 11.8206C82.7406 11.5395 82.7727 11.2559 82.8619 10.9879C82.951 10.7199 83.0952 10.4736 83.2852 10.2646C83.4751 10.0556 83.7066 9.88862 83.9649 9.77436C84.2231 9.6601 84.5024 9.60107 84.7848 9.60107C85.0672 9.60107 85.3465 9.6601 85.6048 9.77436C85.863 9.88862 86.0946 10.0556 86.2845 10.2646C86.4745 10.4736 86.6186 10.7199 86.7078 10.9879C86.7969 11.2559 86.8291 11.5395 86.8022 11.8206C86.8296 12.102 86.7978 12.3861 86.7089 12.6545C86.62 12.9229 86.4759 13.1697 86.2859 13.3791C86.0959 13.5885 85.8642 13.7558 85.6057 13.8703C85.3472 13.9848 85.0676 14.044 84.7848 14.044C84.5021 14.044 84.2225 13.9848 83.964 13.8703C83.7054 13.7558 83.4737 13.5885 83.2837 13.3791C83.0938 13.1697 82.9497 12.9229 82.8608 12.6545C82.7718 12.3861 82.7401 12.102 82.7675 11.8206ZM85.9338 11.8206C85.9338 10.8934 85.5173 10.3511 84.7862 10.3511C84.0524 10.3511 83.6396 10.8934 83.6396 11.8206C83.6396 12.7553 84.0524 13.2934 84.7862 13.2934C85.5173 13.2934 85.9338 12.7516 85.9338 11.8206Z" fill="white"/>
<path d="M87.9344 9.68371H88.7471V10.3633H88.8102C88.9173 10.1192 89.0978 9.91459 89.3266 9.77798C89.5554 9.64136 89.8212 9.57954 90.0868 9.60113C90.2949 9.58549 90.5039 9.61687 90.6983 9.69296C90.8927 9.76905 91.0674 9.8879 91.2096 10.0407C91.3518 10.1935 91.4578 10.3763 91.5198 10.5757C91.5817 10.775 91.598 10.9857 91.5675 11.1922V13.9614H90.7232V11.4042C90.7232 10.7167 90.4245 10.3749 89.8001 10.3749C89.6588 10.3683 89.5177 10.3923 89.3866 10.4454C89.2554 10.4984 89.1373 10.5792 89.0403 10.6822C88.9433 10.7851 88.8696 10.9078 88.8245 11.0419C88.7793 11.176 88.7637 11.3182 88.7787 11.4589V13.9615H87.9344V9.68371Z" fill="white"/>
<path d="M96.3392 8.6189V9.70342H97.266V10.4145H96.3392V12.6142C96.3392 13.0623 96.5238 13.2585 96.9441 13.2585C97.0517 13.2582 97.1592 13.2516 97.266 13.239V13.9422C97.1144 13.9694 96.9608 13.9838 96.8068 13.9854C95.8679 13.9854 95.494 13.6551 95.494 12.8303V10.4145H94.8149V9.70338H95.494V8.6189H96.3392Z" fill="white"/>
<path d="M98.4182 8.01416H99.255V10.3715H99.3218C99.434 10.1252 99.6195 9.91942 99.8529 9.78229C100.086 9.64516 100.356 9.58333 100.626 9.60523C100.833 9.59396 101.04 9.62853 101.232 9.70647C101.425 9.78441 101.597 9.9038 101.738 10.0561C101.879 10.2084 101.984 10.3899 102.046 10.5877C102.109 10.7854 102.127 10.9945 102.099 11.2V13.9619H101.254V11.4083C101.254 10.725 100.936 10.3789 100.34 10.3789C100.194 10.367 100.049 10.387 99.9119 10.4374C99.7754 10.4878 99.6514 10.5674 99.5488 10.6707C99.4462 10.774 99.3675 10.8985 99.318 11.0354C99.2685 11.1724 99.2496 11.3184 99.2625 11.4635V13.9619H98.4182L98.4182 8.01416Z" fill="white"/>
<path d="M107.022 12.8065C106.907 13.1974 106.659 13.5356 106.32 13.7619C105.981 13.9881 105.573 14.088 105.168 14.0441C104.886 14.0515 104.606 13.9975 104.347 13.8859C104.089 13.7742 103.857 13.6076 103.669 13.3975C103.481 13.1874 103.341 12.9389 103.259 12.6693C103.176 12.3997 103.154 12.1153 103.192 11.8361C103.155 11.5559 103.178 11.271 103.26 11.0005C103.342 10.7301 103.481 10.4805 103.668 10.2686C103.855 10.0566 104.086 9.88737 104.344 9.77223C104.602 9.65708 104.882 9.59874 105.165 9.60115C106.355 9.60115 107.073 10.4143 107.073 11.7576V12.0522H104.052V12.0995C104.039 12.2565 104.059 12.4145 104.11 12.5635C104.162 12.7124 104.244 12.8489 104.351 12.9643C104.458 13.0797 104.588 13.1713 104.733 13.2335C104.878 13.2956 105.034 13.3268 105.191 13.325C105.393 13.3493 105.598 13.3129 105.779 13.2206C105.96 13.1282 106.11 12.9841 106.209 12.8064L107.022 12.8065ZM104.052 11.4279H106.213C106.224 11.2843 106.204 11.1401 106.156 11.0045C106.107 10.8689 106.031 10.745 105.932 10.6406C105.833 10.5362 105.713 10.4538 105.58 10.3985C105.447 10.3432 105.304 10.3164 105.16 10.3197C105.014 10.3178 104.869 10.3453 104.734 10.4003C104.598 10.4554 104.476 10.5369 104.372 10.6402C104.269 10.7435 104.188 10.8664 104.133 11.0016C104.078 11.1369 104.05 11.2818 104.052 11.4279Z" fill="white"/>
</svg>
