<svg width="129" height="38" viewBox="0 0 129 38" fill="none" xmlns="http://www.w3.org/2000/svg">
<path d="M1 8.02861C1.02847 6.44463 1.06822 4.98709 1.81053 3.6882L1.81103 3.68732C2.40192 2.64847 3.38147 1.7789 4.57423 1.23638C6.23776 0.487552 8.14388 0.494682 10.1124 0.502045C10.3073 0.502774 10.5028 0.503506 10.6988 0.503506H118.306C118.456 0.503506 118.605 0.503223 118.754 0.502941C120.041 0.500502 121.29 0.498133 122.517 0.679712C125.236 1.09083 127.365 3.00491 127.796 5.33877L127.797 5.34111C128.004 6.43179 128.002 7.54114 127.999 8.70237C127.999 8.8214 127.999 8.94097 127.999 9.06113V28.9396C127.999 29.0604 127.999 29.1806 127.999 29.3003C128.002 30.4618 128.004 31.5714 127.797 32.6624L127.796 32.6651C127.365 35.0076 125.244 36.903 122.517 37.3219C121.29 37.5019 120.044 37.4994 118.76 37.497C118.609 37.4967 118.458 37.4964 118.306 37.4964H10.6988C10.5005 37.4964 10.3027 37.4971 10.1056 37.4979C8.13775 37.5054 6.23755 37.5127 4.57386 36.7615L4.57333 36.7613C3.38088 36.2246 2.40275 35.3546 1.81074 34.3167L1.81047 34.3162C1.06775 33.0173 1.02812 31.5584 1 29.9741V8.02861Z" fill="black" stroke="#A6A6A6"/>
<path d="M45.8267 9.46603H43.1361V10.155H45.1519C45.0983 10.7167 44.8811 11.1585 44.5161 11.479C44.1513 11.7995 43.6864 11.9598 43.1361 11.9598C42.5308 11.9598 42.0181 11.7441 41.5996 11.3113C41.1884 10.8695 40.9799 10.3242 40.9799 9.66675C40.9799 9.00774 41.1884 8.46251 41.5996 8.02224C42.0181 7.58783 42.5308 7.37215 43.1361 7.37215C43.446 7.37215 43.74 7.42756 44.0122 7.54891C44.2831 7.66873 44.5002 7.83648 44.6711 8.05369L45.1823 7.52495C44.9506 7.25233 44.6552 7.0427 44.2917 6.8899C43.9268 6.73864 43.5459 6.66675 43.1361 6.66675C42.3295 6.66675 41.6459 6.95432 41.0885 7.53242C40.5295 8.11053 40.25 8.8235 40.25 9.66675C40.25 10.5085 40.5295 11.2229 41.0885 11.7995C41.6459 12.3776 42.3295 12.6667 43.1361 12.6667C43.9804 12.6667 44.6552 12.3851 45.1751 11.816C45.6327 11.3427 45.8658 10.7017 45.8658 9.89891C45.8658 9.7626 45.8499 9.61729 45.8267 9.46603ZM46.8987 6.79404V12.5379H50.1396V11.8325H47.6112V10.0113H49.8919V9.32071H47.6112V7.50098H50.1396V6.79404H46.8987ZM54.7066 7.50098V6.79404H50.8908V7.50098H52.4418V12.5379H53.1542V7.50098H54.7066ZM58.1887 6.79404H57.4761V12.5379H58.1887V6.79404ZM62.9084 7.50098V6.79404H59.0926V7.50098H60.6436V12.5379H61.356V7.50098H62.9084ZM70.136 7.5399C69.5857 6.95432 68.9109 6.66675 68.1043 6.66675C67.2977 6.66675 66.6229 6.95432 66.0726 7.53242C65.5223 8.10161 65.25 8.81603 65.25 9.66675C65.25 10.5159 65.5223 11.2303 66.0726 11.7995C66.6229 12.3776 67.2977 12.6667 68.1043 12.6667C68.9036 12.6667 69.5857 12.3776 70.136 11.7995C70.6877 11.2303 70.9585 10.5159 70.9585 9.66675C70.9585 8.8235 70.6877 8.11053 70.136 7.5399ZM66.5838 8.02224C66.995 7.58783 67.499 7.37215 68.1043 7.37215C68.7096 7.37215 69.2136 7.58783 69.6176 8.02224C70.0274 8.44756 70.2301 9.00026 70.2301 9.66675C70.2301 10.3317 70.0274 10.8859 69.6176 11.3113C69.2136 11.7441 68.7096 11.9598 68.1043 11.9598C67.499 11.9598 66.995 11.7441 66.5838 11.3113C66.1812 10.8769 65.9799 10.3317 65.9799 9.66675C65.9799 9.00026 66.1812 8.45503 66.5838 8.02224ZM72.6818 8.95981L72.6513 7.85296H72.6818L75.5056 12.5379H76.25V6.79404H75.536V10.155L75.5679 11.2618H75.536L72.8367 6.79404H71.9693V12.5379H72.6818V8.95981Z" fill="white"/>
<path d="M101.284 28.4637H103.027V16.5951H101.284V28.4637ZM116.979 20.8707L114.982 26.0161H114.922L112.849 20.8707H110.972L114.081 28.0621L112.308 32.0628H114.125L118.917 20.8707H116.979ZM107.096 27.1157C106.527 27.1157 105.73 26.8253 105.73 26.1078C105.73 25.1917 106.722 24.8405 107.577 24.8405C108.343 24.8405 108.704 25.0082 109.169 25.2374C109.034 26.3369 108.103 27.1157 107.096 27.1157ZM107.307 20.611C106.046 20.611 104.739 21.1762 104.199 22.4282L105.745 23.0846C106.076 22.4282 106.691 22.2146 107.337 22.2146C108.238 22.2146 109.154 22.7638 109.169 23.7414V23.8634C108.854 23.6801 108.178 23.4054 107.352 23.4054C105.684 23.4054 103.988 24.3365 103.988 26.0773C103.988 27.6653 105.355 28.6884 106.886 28.6884C108.057 28.6884 108.704 28.154 109.109 27.5277H109.169V28.4444H110.852V23.8937C110.852 21.7866 109.304 20.611 107.307 20.611ZM96.5384 22.3154H94.0601V18.2473H96.5384C97.8411 18.2473 98.5807 19.3435 98.5807 20.2813C98.5807 21.201 97.8411 22.3154 96.5384 22.3154ZM96.4936 16.5951H92.3183V28.4637H94.0601V23.9672H96.4936C98.4248 23.9672 100.323 22.5461 100.323 20.2813C100.323 18.017 98.4248 16.5951 96.4936 16.5951ZM73.7256 27.1179C72.5218 27.1179 71.5143 26.0929 71.5143 24.6863C71.5143 23.2634 72.5218 22.2238 73.7256 22.2238C74.9141 22.2238 75.8468 23.2634 75.8468 24.6863C75.8468 26.0929 74.9141 27.1179 73.7256 27.1179ZM75.7264 21.5352H75.6662C75.2752 21.0612 74.5226 20.6329 73.5754 20.6329C71.5891 20.6329 69.7689 22.4074 69.7689 24.6863C69.7689 26.9496 71.5891 28.7085 73.5754 28.7085C74.5226 28.7085 75.2752 28.2801 75.6662 27.791H75.7264V28.3717C75.7264 29.9171 74.9141 30.7426 73.6052 30.7426C72.5375 30.7426 71.8755 29.9627 71.6044 29.3052L70.0852 29.9475C70.5211 31.0177 71.6792 32.3335 73.6052 32.3335C75.6516 32.3335 77.3817 31.1097 77.3817 28.127V20.8777H75.7264V21.5352ZM78.5855 28.4637H80.3299V16.5951H78.5855V28.4637ZM82.9027 24.5483C82.8578 22.9881 84.0918 22.193 84.979 22.193C85.6713 22.193 86.2575 22.545 86.4538 23.0494L82.9027 24.5483ZM88.3185 23.2021C87.9877 22.3002 86.9798 20.6329 84.9187 20.6329C82.8723 20.6329 81.1725 22.2695 81.1725 24.6707C81.1725 26.9344 82.8578 28.7085 85.1139 28.7085C86.9341 28.7085 87.9877 27.577 88.4242 26.9191L87.0702 26.0012C86.6187 26.6743 86.0022 27.1179 85.1139 27.1179C84.2268 27.1179 83.5947 26.7048 83.189 25.8942L88.499 23.6612L88.3185 23.2021ZM46.0089 21.8719V23.5848H50.0407C49.9203 24.5483 49.6044 25.2518 49.1229 25.7413C48.536 26.3376 47.6182 26.9955 46.0089 26.9955C43.5265 26.9955 41.5859 24.9614 41.5859 22.4378C41.5859 19.9142 43.5265 17.8798 46.0089 17.8798C47.3479 17.8798 48.3255 18.4152 49.0477 19.1035L50.2366 17.895C49.2283 16.9163 47.8896 16.1668 46.0089 16.1668C42.6083 16.1668 39.75 18.9811 39.75 22.4378C39.75 25.8941 42.6083 28.7085 46.0089 28.7085C47.844 28.7085 49.2283 28.0966 50.3114 26.9496C51.4247 25.8177 51.7709 24.2272 51.7709 22.9422C51.7709 22.545 51.7405 22.1778 51.6804 21.8719H46.0089ZM56.3547 27.1179C55.1509 27.1179 54.1127 26.1084 54.1127 24.6707C54.1127 23.2177 55.1509 22.2238 56.3547 22.2238C57.558 22.2238 58.5961 23.2177 58.5961 24.6707C58.5961 26.1084 57.558 27.1179 56.3547 27.1179ZM56.3547 20.6329C54.1575 20.6329 52.3676 22.3306 52.3676 24.6707C52.3676 26.9955 54.1575 28.7085 56.3547 28.7085C58.5509 28.7085 60.3413 26.9955 60.3413 24.6707C60.3413 22.3306 58.5509 20.6329 56.3547 20.6329ZM65.0512 27.1179C63.8482 27.1179 62.8097 26.1084 62.8097 24.6707C62.8097 23.2177 63.8482 22.2238 65.0512 22.2238C66.255 22.2238 67.2928 23.2177 67.2928 24.6707C67.2928 26.1084 66.255 27.1179 65.0512 27.1179ZM65.0512 20.6329C62.8549 20.6329 61.065 22.3306 61.065 24.6707C61.065 26.9955 62.8549 28.7085 65.0512 28.7085C67.2483 28.7085 69.0383 26.9955 69.0383 24.6707C69.0383 22.3306 67.2483 20.6329 65.0512 20.6329Z" fill="white"/>
<path d="M20.9348 18.4564L10.8188 29.1933C10.8192 29.1955 10.82 29.1974 10.8204 29.1996C11.1306 30.3654 12.1954 31.2239 13.4593 31.2239C13.9645 31.2239 14.4388 31.0873 14.8456 30.8475L14.8779 30.8286L26.2647 24.258L20.9348 18.4564Z" fill="#EA4335"/>
<path d="M31.1692 16.628L31.1595 16.6214L26.2435 13.7716L20.7051 18.6999L26.2628 24.2568L31.1528 21.4353C32.0102 20.9725 32.5921 20.0687 32.5921 19.0265C32.5921 17.9917 32.018 17.0924 31.1692 16.628Z" fill="#FBBC04"/>
<path d="M10.8185 8.81521C10.7577 9.03945 10.7257 9.27433 10.7257 9.51824V28.4908C10.7257 28.7342 10.7573 28.9699 10.8189 29.1934L21.283 18.7311L10.8185 8.81521Z" fill="#4285F4"/>
<path d="M21.0094 19.0042L26.2454 13.7697L14.8715 7.17533C14.4581 6.92772 13.9756 6.78482 13.4593 6.78482C12.1955 6.78482 11.1292 7.64481 10.8189 8.81209C10.8185 8.81323 10.8185 8.81399 10.8185 8.81504L21.0094 19.0042Z" fill="#34A853"/>
</svg>
